{"title":"South.Park.S19.COMPLETE.UNCENSORED.WEB-DL.x264-LeRalouf","uid":14776107,"size":949988560,"categoryP":"video","categoryS":"tv_shows","magnet":"?xt=urn:btih:c6ba8c45a577861a3611debfaf491b1d4cc0ccc7&amp;dn=South.Park.S19.COMPLETE.UNCENSORED.WEB-DL.x264-LeRalouf&amp;tr=udp%3A%2F%2Ftracker.leechers-paradise.org%3A6969&amp;tr=udp%3A%2F%2Fzer0day.ch%3A1337&amp;tr=udp%3A%2F%2Fopen.demonii.com%3A1337&amp;tr=udp%3A%2F%2Ftracker.coppersurfer.tk%3A6969&amp;tr=udp%3A%2F%2Fexodus.desync.com%3A6969","seeders":3,"leechers":2,"uploader":"LeRalouf","files":30,"time":1464955470,"description":"South Park season 19 WEB-DL x264-LeRalouf COMPLETE, UNCENSORED\r\n\r\n\r\nGeneral\r\nFormat : MPEG-4\r\nFormat profile : Base Media\r\nCodec ID : isom\r\nFile size : 90.7 MiB\r\nDuration : 22mn 9s\r\nOverall bit rate mode : Variable\r\nOverall bit rate : 572 Kbps\r\nEncoded date : UTC 2015-12-22 10:15:04\r\nTagged date : UTC 2015-12-22 10:15:04\r\n\r\nVideo\r\nID : 1\r\nFormat : AVC\r\nFormat/Info : Advanced Video Codec\r\nFormat profile :   \r\nFormat settings, CABAC : Yes\r\nFormat settings, ReFrames : 15 frames\r\nCodec ID : avc1\r\nCodec ID/Info : Advanced Video Coding\r\nDuration : 22mn 9s\r\nBit rate : 419 Kbps\r\nMaximum bit rate : 3 114 Kbps\r\nWidth : 720 pixels\r\nHeight : 404 pixels\r\nDisplay aspect ratio : 16:9\r\nFrame rate mode : Constant\r\nFrame rate : 23.976 fps\r\nColor space : YUV\r\nChroma subsampling : 4:2:0\r\nBit depth : 8 bits\r\nScan type : Progressive\r\nBits/(Pixel*Frame) : 0.060\r\nStream size : 66.4 MiB (73%)\r\nWriting library : x264 core 142 r2389 956c8d8\r\nEncoding settings : cabac=1 / ref=15 / deblock=1:0:0 / analyse=0x3:0x133 / me=umh / subme=11 / psy=1 / psy_rd=1,00:0,00 / mixed_ref=1 / me_range=16 / chroma_me=1 / trellis=2 / 8x8dct=1 / cqm=0 / deadzone=21,11 / fast_pskip=1 / chroma_qp_offset=-2 / threads=12 / lookahead_threads=1 / sliced_threads=0 / nr=0 / decimate=1 / interlaced=0 / bluray_compat=0 / constrained_intra=0 / bframes=5 / b_pyramid=2 / b_adapt=2 / b_bias=0 / direct=3 / weightb=1 / open_gop=0 / weightp=2 / keyint=250 / keyint_min=23 / scenecut=40 / intra_refresh=0 / rc_lookahead=60 / rc=crf / mbtree=1 / crf=19,0 / qcomp=0,60 / qpmin=0 / qpmax=69 / qpstep=4 / ip_ratio=1,40 / aq=1:1,00\r\nLanguage : English\r\nEncoded date : UTC 2015-12-22 10:15:04\r\nTagged date : UTC 2015-12-22 10:15:05\r\nColor primaries : BT.709\r\nTransfer characteristics : BT.709\r\nMatrix coefficients : BT.709\r\n\r\nAudio\r\nID : 2\r\nFormat : AAC\r\nFormat/Info : Advanced Audio Codec\r\nFormat profile : LC\r\nCodec ID : 40\r\nDuration : 22mn 9s\r\nBit rate mode : Variable\r\nBit rate : 149 Kbps\r\nMaximum bit rate : 247 Kbps\r\nChannel(s) : 2 channels\r\nChannel positions : Front: L R\r\nSampling rate : 48.0 KHz\r\nCompression mode : Lossy\r\nStream size : 23.6 MiB (26%)\r\nLanguage : English\r\nEncoded date : UTC 2015-12-22 10:15:05\r\nTagged date : UTC 2015-12-22 10:15:05\r\n\r\nText #1\r\nID : 3\r\nFormat : Timed Text\r\nCodec ID : tx3g\r\nDuration : 21mn 49s\r\nBit rate mode : Variable\r\nBit rate : 110 bps\r\nStream size : 17.7 KiB (0%)\r\nLanguage : English\r\nEncoded date : UTC 2015-12-22 10:15:05\r\nTagged date : UTC 2015-12-22 10:15:05\r\n\r\nText #2\r\nID : 4\r\nFormat : Timed Text\r\nCodec ID : tx3g\r\nDuration : 21mn 49s\r\nBit rate mode : Variable\r\nBit rate : 113 bps\r\nStream size : 18.1 KiB (0%)\r\nLanguage : French\r\nEncoded date : UTC 2015-12-22 10:15:05\r\nTagged date : UTC 2015-12-22 10:15:05\r\n\r\n\r\n\r\nThe 19th season, complete, with subtitles (.srt and muxed), uncensored.\r\n\r\nSources : Torrent: South Park S19 COMPLETE UNCENSORED 720p WEB-DL H264-YFN","torrent":{"xt":"urn:btih:c6ba8c45a577861a3611debfaf491b1d4cc0ccc7","amp;dn":"South.Park.S19.COMPLETE.UNCENSORED.WEB-DL.x264-LeRalouf","amp;tr":["udp%3A%2F%2Ftracker.leechers-paradise.org%3A6969","udp%3A%2F%2Fzer0day.ch%3A1337","udp%3A%2F%2Fopen.demonii.com%3A1337","udp%3A%2F%2Ftracker.coppersurfer.tk%3A6969","udp%3A%2F%2Fexodus.desync.com%3A6969"],"infoHash":"c6ba8c45a577861a3611debfaf491b1d4cc0ccc7","infoHashBuffer":{"type":"Buffer","data":[198,186,140,69,165,119,134,26,54,17,222,191,175,73,27,29,76,192,204,199]},"announce":[],"urlList":[]}}